<svg xmlns="http://www.w3.org/2000/svg" xmlns:xlink="http://www.w3.org/1999/xlink" id="svg" version="1.1" viewBox="173.68 189.85 41.17 39.33"><g id="svgg"><path id="path0" d="M192.333 190.053 C 192.333 190.196,192.108 190.226,191.833 190.121 C 191.558 190.015,191.071 190.040,190.750 190.176 C 190.429 190.312,189.717 190.478,189.167 190.545 C 188.617 190.613,187.979 190.692,187.750 190.723 C 187.521 190.753,187.333 190.903,187.333 191.056 C 187.333 191.208,187.033 191.333,186.667 191.333 C 186.300 191.333,186.000 191.483,186.000 191.667 C 186.000 191.850,185.729 192.000,185.397 192.000 C 185.065 192.000,184.503 192.236,184.147 192.525 C 183.791 192.813,183.725 192.939,184.000 192.805 C 184.275 192.670,184.383 192.688,184.240 192.845 C 184.098 193.002,183.725 193.168,183.413 193.214 C 183.101 193.260,182.793 193.455,182.728 193.649 C 182.664 193.842,182.453 194.000,182.259 194.000 C 182.065 194.000,181.692 194.262,181.429 194.583 C 181.128 194.950,181.036 194.981,181.182 194.667 C 181.309 194.392,180.751 194.842,179.943 195.667 C 179.135 196.492,178.508 197.220,178.550 197.285 C 178.591 197.350,178.283 197.725,177.863 198.118 C 177.444 198.512,177.166 199.021,177.245 199.250 C 177.324 199.479,177.226 199.667,177.028 199.667 C 176.829 199.667,176.667 199.901,176.667 200.186 C 176.667 200.472,176.534 200.624,176.372 200.524 C 176.210 200.424,175.924 200.752,175.737 201.254 C 175.549 201.756,175.278 202.467,175.134 202.833 C 174.989 203.200,174.848 203.650,174.820 203.833 C 174.792 204.017,174.658 204.422,174.522 204.734 C 174.386 205.046,174.371 205.459,174.490 205.651 C 174.609 205.843,174.550 206.000,174.360 206.000 C 174.169 206.000,174.065 206.446,174.129 206.992 C 174.192 207.538,174.120 207.908,173.969 207.814 C 173.690 207.642,173.867 209.848,174.171 210.341 C 174.263 210.489,174.149 210.673,173.919 210.750 C 173.589 210.861,173.599 211.077,173.964 211.763 C 174.220 212.242,174.429 213.312,174.429 214.141 C 174.429 214.969,174.557 215.568,174.714 215.471 C 174.871 215.373,175.016 215.490,175.035 215.730 C 175.055 215.970,175.104 216.392,175.145 216.667 C 175.186 216.942,175.245 217.438,175.276 217.770 C 175.308 218.101,175.483 218.280,175.667 218.167 C 175.850 218.053,176.000 218.261,176.000 218.627 C 176.000 218.994,176.152 219.388,176.339 219.503 C 176.525 219.619,176.591 219.853,176.484 220.025 C 176.378 220.197,176.526 220.428,176.812 220.538 C 177.099 220.648,177.336 220.909,177.339 221.119 C 177.347 221.698,179.205 223.684,179.481 223.408 C 179.614 223.275,179.672 223.379,179.611 223.639 C 179.550 223.899,179.836 224.288,180.248 224.502 C 180.659 224.717,181.259 225.179,181.581 225.530 C 182.433 226.456,185.217 227.778,185.695 227.483 C 185.941 227.331,186.017 227.369,185.888 227.579 C 185.690 227.899,187.756 228.543,188.452 228.378 C 188.609 228.340,188.930 228.470,189.167 228.667 C 189.403 228.863,189.725 229.000,189.882 228.972 C 190.038 228.944,190.242 228.959,190.333 229.004 C 190.874 229.275,198.232 229.217,198.569 228.940 C 198.790 228.758,199.127 228.706,199.319 228.824 C 199.510 228.943,199.669 228.843,199.672 228.603 C 199.675 228.286,199.765 228.303,200.000 228.667 C 200.249 229.052,200.324 229.063,200.328 228.714 C 200.331 228.450,200.541 228.342,200.833 228.454 C 201.108 228.559,201.333 228.505,201.333 228.333 C 201.333 228.162,201.551 228.105,201.818 228.207 C 202.084 228.309,202.643 228.154,203.059 227.863 C 203.475 227.572,204.161 227.333,204.585 227.333 C 205.008 227.333,205.440 227.109,205.545 226.835 C 205.651 226.561,205.871 226.420,206.035 226.522 C 206.199 226.623,206.333 226.552,206.333 226.363 C 206.333 226.175,206.534 226.098,206.780 226.192 C 207.026 226.287,207.438 226.104,207.697 225.786 C 208.108 225.281,208.100 225.233,207.635 225.407 C 207.220 225.563,207.137 225.431,207.258 224.803 C 207.372 224.206,207.264 224.000,206.837 224.000 C 206.464 224.000,206.329 223.825,206.453 223.502 C 206.559 223.225,206.326 222.709,205.926 222.336 C 205.531 221.968,205.340 221.667,205.501 221.667 C 205.662 221.667,205.503 221.431,205.147 221.142 C 204.791 220.853,204.725 220.714,205.000 220.833 C 205.275 220.952,205.209 220.813,204.853 220.525 C 204.497 220.236,204.347 219.998,204.520 219.995 C 204.692 219.992,204.608 219.848,204.333 219.674 C 204.058 219.500,203.833 219.236,203.833 219.087 C 203.833 218.306,202.325 216.958,201.681 217.162 C 201.306 217.281,201.000 217.518,201.000 217.689 C 201.000 217.860,200.887 217.970,200.750 217.934 C 200.330 217.823,199.000 218.361,199.000 218.643 C 199.000 218.788,198.649 218.840,198.219 218.758 C 197.790 218.676,197.217 218.831,196.946 219.101 C 196.591 219.456,196.290 219.502,195.867 219.265 C 195.544 219.085,194.631 218.989,193.839 219.052 C 193.031 219.116,192.479 219.034,192.584 218.864 C 192.687 218.698,192.447 218.646,192.052 218.750 C 191.656 218.853,191.416 218.802,191.519 218.636 C 191.622 218.469,191.397 218.333,191.020 218.333 C 190.642 218.333,190.333 218.183,190.333 218.000 C 190.333 217.817,190.114 217.667,189.845 217.667 C 189.577 217.667,189.194 217.362,188.995 216.991 C 188.796 216.619,188.468 216.417,188.265 216.542 C 188.048 216.676,187.991 216.618,188.126 216.399 C 188.252 216.196,188.599 216.123,188.899 216.238 C 189.268 216.379,189.363 216.318,189.197 216.048 C 189.061 215.829,189.074 215.685,189.225 215.727 C 189.964 215.935,192.347 215.291,192.131 214.942 C 192.002 214.734,192.042 214.653,192.219 214.762 C 192.621 215.011,195.333 214.344,195.333 213.996 C 195.333 213.856,195.521 213.752,195.750 213.766 C 196.610 213.817,199.000 213.238,199.000 212.978 C 199.000 212.829,199.677 212.606,200.504 212.482 C 201.331 212.358,202.090 212.124,202.190 211.962 C 202.291 211.799,202.748 211.667,203.206 211.667 C 203.747 211.667,203.957 211.533,203.803 211.285 C 203.641 211.022,203.839 210.955,204.440 211.070 C 204.920 211.162,205.241 211.119,205.152 210.976 C 204.963 210.671,206.295 210.184,206.569 210.458 C 206.671 210.560,207.071 210.474,207.457 210.267 C 207.844 210.060,208.462 209.845,208.830 209.789 C 210.192 209.583,210.653 209.458,210.879 209.232 C 211.007 209.104,211.386 209.000,211.722 209.000 C 212.058 209.000,212.333 208.841,212.333 208.647 C 212.333 208.453,212.480 208.385,212.660 208.496 C 212.839 208.607,213.327 208.509,213.743 208.278 C 214.159 208.047,214.599 207.886,214.719 207.919 C 214.839 207.952,214.888 207.721,214.828 207.406 C 214.767 207.091,214.689 206.833,214.655 206.833 C 214.620 206.833,214.553 206.315,214.507 205.682 C 214.461 205.048,214.269 204.478,214.080 204.416 C 213.892 204.353,213.820 203.985,213.921 203.599 C 214.039 203.149,213.977 202.975,213.748 203.116 C 213.538 203.246,213.428 203.096,213.479 202.752 C 213.559 202.213,213.357 201.650,212.614 200.333 C 212.459 200.058,212.175 199.468,211.984 199.020 C 211.792 198.573,211.342 198.002,210.984 197.752 C 210.626 197.501,210.333 197.134,210.333 196.937 C 210.333 196.449,207.519 193.667,207.024 193.667 C 206.806 193.667,206.713 193.527,206.819 193.357 C 206.924 193.187,206.725 192.958,206.378 192.847 C 206.030 192.737,205.405 192.351,204.989 191.990 C 204.572 191.629,203.913 191.333,203.523 191.333 C 203.134 191.333,202.475 191.095,202.059 190.804 C 201.643 190.512,201.084 190.358,200.818 190.460 C 200.551 190.562,200.333 190.500,200.333 190.323 C 200.333 190.145,200.221 190.018,200.083 190.039 C 199.946 190.061,199.758 190.041,199.667 189.994 C 199.227 189.772,192.333 189.827,192.333 190.053 M196.363 199.433 C 196.471 199.580,196.884 199.724,197.280 199.754 C 197.676 199.784,198.000 199.927,198.000 200.071 C 198.000 200.215,198.139 200.296,198.310 200.250 C 198.480 200.204,198.866 200.467,199.168 200.833 C 199.469 201.200,199.607 201.289,199.473 201.032 C 199.314 200.724,199.362 200.645,199.615 200.802 C 199.827 200.932,200.000 201.237,200.000 201.479 C 200.000 201.721,200.338 202.169,200.750 202.475 C 201.162 202.781,201.314 202.941,201.087 202.831 C 200.818 202.701,200.743 202.811,200.872 203.147 C 200.981 203.431,201.204 203.580,201.368 203.478 C 201.532 203.377,201.667 203.612,201.667 204.000 C 201.667 204.388,201.517 204.613,201.333 204.500 C 201.150 204.387,201.000 204.448,201.000 204.637 C 201.000 204.825,200.769 204.891,200.488 204.782 C 200.206 204.674,199.680 204.853,199.319 205.180 C 198.958 205.506,198.563 205.674,198.442 205.553 C 198.320 205.431,197.946 205.580,197.610 205.884 C 197.275 206.188,197.000 206.275,197.000 206.078 C 197.000 205.881,196.325 206.078,195.500 206.517 C 194.675 206.956,194.000 207.164,194.000 206.979 C 194.000 206.777,193.700 206.809,193.250 207.059 C 192.838 207.288,192.364 207.435,192.197 207.387 C 192.031 207.338,191.792 207.464,191.667 207.666 C 191.542 207.868,191.116 208.058,190.720 208.088 C 190.324 208.117,190.000 208.276,190.000 208.440 C 190.000 208.604,189.794 208.659,189.542 208.562 C 189.290 208.465,188.308 208.745,187.361 209.184 C 185.754 209.929,184.356 209.571,185.535 208.716 C 185.699 208.597,185.862 208.050,185.897 207.500 C 185.993 205.983,187.303 202.605,188.044 201.962 C 188.406 201.648,189.031 201.146,189.434 200.847 C 189.837 200.547,189.942 200.406,189.667 200.533 C 189.282 200.711,189.254 200.669,189.549 200.350 C 189.759 200.122,190.509 199.861,191.215 199.770 C 191.922 199.679,192.609 199.502,192.741 199.378 C 193.078 199.061,196.123 199.108,196.363 199.433 " stroke="none" fill="#f4f4f4" fill-rule="evenodd"/><path id="path1" d="M185.333 209.111 C 185.333 209.735,185.653 209.984,186.191 209.778 C 186.578 209.629,186.577 209.529,186.182 209.134 C 185.596 208.548,185.333 208.541,185.333 209.111 M204.667 210.854 C 203.932 211.132,203.747 211.297,204.167 211.299 C 204.533 211.302,205.283 211.097,205.833 210.845 C 207.106 210.263,206.212 210.269,204.667 210.854 " stroke="none" fill="#ececec" fill-rule="evenodd"/><path id="path2" d="" stroke="none" fill="#f4f8f0" fill-rule="evenodd"/><path id="path3" d="" stroke="none" fill="#f4f8f0" fill-rule="evenodd"/><path id="path4" d="" stroke="none" fill="#f4f8f0" fill-rule="evenodd"/></g></svg>